<?xml version="1.0" encoding="utf-8"?>
<!-- Generator: Adobe Illustrator 19.2.1, SVG Export Plug-In . SVG Version: 6.00 Build 0)  -->
<svg version="1.1" id="layer" xmlns="http://www.w3.org/2000/svg" xmlns:xlink="http://www.w3.org/1999/xlink" x="0px" y="0px"
	 viewBox="0 0 652 652" style="enable-background:new 0 0 652 652;" xml:space="preserve">
<style type="text/css">
	.st0{fill:#00A3E0;}
</style>
<path class="st0" d="M164.8,370h-12.4v-89.2h12.4V370z M144.3,319.4c0,7.2-5.6,13-12.6,13h-22.8v37.6H95v-57.4h13.8v5.9h16.5
	c2.9,0,5.3-2.4,5.3-5.4v-12c0-3-2.4-5.4-5.3-5.4H60.3c-2.9,0-5.3,2.4-5.3,5.4v49.6c0,3,2.4,5.4,5.3,5.4h24v13.8h-31
	c-7,0-12.6-5.8-12.6-13v-63.1c0-7.2,5.6-13,12.6-13h78.4c7,0,12.6,5.8,12.6,13V319.4z M165.5,269.6H39.3c-6.9,0-12.5,5.6-12.5,12.4
	v87.3c0,6.8,5.6,12.4,12.5,12.4h126.2c6.9,0,12.5-5.5,12.5-12.4V282C178,275.1,172.4,269.6,165.5,269.6"/>
<path d="M197.4,319.5c0-4.4,1.4-8.2,7.3-8.2c4.3,0,6.3,2.2,6.3,5.7v3.1h-4.1v-2.2c0-2-0.7-3.2-2.5-3.2c-2.3,0-2.7,1.6-2.7,5.4v15.3
	c0,3.7,1.2,4.3,2.6,4.3c1.6,0,2.6-1.1,2.6-3.7v-2.2h4.1v3.5c0,3.3-1.3,5.8-6.4,5.8c-5.5,0-7.2-2.9-7.2-7.8V319.5z"/>
<polygon points="219.6,311.5 223.9,311.5 223.9,324.9 229.7,324.9 229.7,311.5 234,311.5 234,342.8 229.7,342.8 229.7,328.6 
	223.9,328.6 223.9,342.8 219.6,342.8 "/>
<path d="M249,331.2h5.5l-2.7-15.1h-0.1L249,331.2z M249.5,311.5h5l6.4,31.3h-4.3l-1.4-8h-6.8l-1.4,8h-4.3L249.5,311.5z"/>
<polygon points="264.6,311.5 279.4,311.5 279.4,315.1 274.2,315.1 274.2,342.8 269.8,342.8 269.8,315.1 264.6,315.1 "/>
<path d="M287.3,333.7h4.3v2.6c0,2.1,0.8,3.4,2.5,3.4c2.3,0,2.9-1.6,2.9-3.6c0-2.6-0.1-3.5-4.6-8c-2.8-2.8-5.1-5.3-5.1-9.5
	c0-5.1,2.4-7.3,7.1-7.3c2.3,0,4,0.8,5.1,1.7c0.7,0.7,1.3,1.8,1.3,4v2.9h-4.1v-2.5c0-1.8-0.7-2.8-2.4-2.8c-1.8,0-2.6,1-2.6,3.4
	c0,2.1,0.4,3.4,4.4,7.6c4.2,4.4,5,5.9,5,9.7c0,4.9-1.9,7.7-7.1,7.7c-4,0-6.7-1.7-6.7-5.6V333.7z"/>
<polygon points="309.2,311.5 313.7,311.5 316.8,337.2 316.9,337.2 320.3,311.5 326.2,311.5 329.1,337.2 329.2,337.2 332.9,311.5 
	337,311.5 331.3,342.8 326.1,342.8 323.2,316.6 323.1,316.6 319.4,342.8 314.1,342.8 "/>
<path d="M349.1,335.5c0,2.7,1.2,4.1,3,4.1c1.8,0,3-1.4,3-4.1v-16.4c0-3.1-1-4.5-3-4.5c-1.9,0-3,1.4-3,4.5V335.5z M344.7,319.5
	c0-4.4,1.4-8.2,7.3-8.2c5.6,0,7.4,2.9,7.4,7.8v15.8c0,4.4-1.4,8.2-7.4,8.2c-5.5,0-7.3-2.9-7.3-7.8V319.5z"/>
<path d="M373.3,325.5h1.1c3.4,0,3.9-0.6,3.9-5.3c0-4.6-0.3-5.1-2.9-5.1h-2.1V325.5z M369,311.5h6.7c6.3,0,7,1.7,7,8.5
	c0,4.2-0.6,6-4.1,7.1v0.1c2.9,0.3,3.9,1.8,3.9,4.8v6.8c0,1.1,0,2.7,0.3,4h-4.1c-0.4-0.8-0.5-1.6-0.5-2.8v-7.1c0-2.9-0.5-3.7-3.4-3.7
	h-1.5v13.6H369V311.5z"/>
<polygon points="389.4,311.5 404.1,311.5 404.1,315.1 398.9,315.1 398.9,342.8 394.6,342.8 394.6,315.1 389.4,315.1 "/>
<polygon points="412.5,311.5 416.8,311.5 416.8,324.9 422.6,324.9 422.6,311.5 426.9,311.5 426.9,342.8 422.6,342.8 422.6,328.6 
	416.8,328.6 416.8,342.8 412.5,342.8 "/>
<path d="M461.4,325.5h2.3c2.9,0,3.2-0.5,3.2-5.2c0-4.7-0.3-5.2-3.2-5.2h-2.3V325.5z M457,311.5h7.1c5.9,0,7,1.6,7,8.8
	c0,7.2-1.1,8.8-7,8.8h-2.8v13.6H457V311.5z"/>
<path d="M483.8,325.5h1.1c3.4,0,3.9-0.6,3.9-5.3c0-4.6-0.3-5.1-2.9-5.1h-2.1V325.5z M479.5,311.5h6.7c6.3,0,7,1.7,7,8.5
	c0,4.2-0.6,6-4.1,7.1v0.1c2.9,0.3,3.9,1.8,3.9,4.8v6.8c0,1.1,0,2.7,0.3,4h-4.1c-0.4-0.8-0.5-1.6-0.5-2.8v-7.1c0-2.9-0.5-3.7-3.4-3.7
	h-1.5v13.6h-4.3V311.5z"/>
<path d="M506.2,335.5c0,2.7,1.2,4.1,3,4.1c1.8,0,3-1.4,3-4.1v-16.4c0-3.1-1-4.5-3-4.5c-1.9,0-3,1.4-3,4.5V335.5z M501.8,319.5
	c0-4.4,1.4-8.2,7.3-8.2c5.6,0,7.4,2.9,7.4,7.8v15.8c0,4.4-1.4,8.2-7.4,8.2c-5.5,0-7.3-2.9-7.3-7.8V319.5z"/>
<path d="M529.6,339.1h2.1c3.2,0,3.8-1.7,3.8-7.1v-10.7c0-4.6-0.5-6.2-4.2-6.2h-1.7V339.1z M525.2,311.5h7c7,0,7.6,2.3,7.6,11.4v9.3
	c0,8-1.4,10.5-8.3,10.5h-6.3V311.5z"/>
<path d="M563,335.7c0,3.6-1.4,7.3-7.3,7.3c-5.9,0-7.4-3.7-7.4-7.3v-24.2h4.3v24.9c0,2.1,0.8,3.2,3,3.2c2.2,0,3-1.1,3-3.2v-24.9h4.3
	V335.7z"/>
<path d="M571.3,319.5c0-4.4,1.4-8.2,7.3-8.2c4.3,0,6.3,2.2,6.3,5.7v3.1h-4.1v-2.2c0-2-0.7-3.2-2.5-3.2c-2.3,0-2.7,1.6-2.7,5.4v15.3
	c0,3.7,1.2,4.3,2.6,4.3c1.6,0,2.6-1.1,2.6-3.7v-2.2h4.1v3.5c0,3.3-1.3,5.8-6.4,5.8c-5.5,0-7.2-2.9-7.2-7.8V319.5z"/>
<polygon points="591.3,311.5 606,311.5 606,315.1 600.8,315.1 600.8,342.8 596.5,342.8 596.5,315.1 591.3,315.1 "/>
<path d="M613,333.7h4.3v2.6c0,2.1,0.8,3.4,2.5,3.4c2.3,0,2.9-1.6,2.9-3.6c0-2.6-0.1-3.5-4.6-8c-2.8-2.8-5.1-5.3-5.1-9.5
	c0-5.1,2.4-7.3,7.1-7.3c2.3,0,4,0.8,5.1,1.7c0.7,0.7,1.3,1.8,1.3,4v2.9h-4.1v-2.5c0-1.8-0.7-2.8-2.4-2.8c-1.8,0-2.6,1-2.6,3.4
	c0,2.1,0.4,3.4,4.4,7.6c4.2,4.4,5,5.9,5,9.7c0,4.9-1.9,7.7-7.1,7.7c-4,0-6.7-1.7-6.7-5.6V333.7z"/>
</svg>
