<svg width="2500" height="2500" viewBox="0 0 2500 2500" fill="none" xmlns="http://www.w3.org/2000/svg">
<path fill-rule="evenodd" clip-rule="evenodd" d="M1389.68 534.056C1383.22 540.787 1360.5 575.157 1360.5 617.737C1360.5 627.931 1360.68 872.022 1360.5 880.777C1360.15 899.35 1348.8 925.808 1339.45 935.133C1332.86 941.722 1292.38 978.53 1288.79 982.395L1311.75 982.758C1319.22 975.612 1397.19 906.496 1405.35 897.197C1415.96 885.135 1441.25 854.578 1441.25 806.59L1441.38 553.848C1441.38 515.924 1459.06 494.887 1468.15 484.732C1477.5 474.304 1508.23 448.676 1513.67 442.879L1489.59 442.165C1483.77 447.989 1397.7 525.665 1389.68 534.056ZM1196.63 1490.54L1292.11 1573.95H1356.05C1421.06 1573.95 1480.49 1546.13 1519.69 1506.93C1558.93 1467.68 1573.37 1414.99 1573.37 1365.69V1228.96C1573.37 1183.01 1544.49 1156.28 1536.49 1148.27C1532.1 1143.91 1504.3 1117.68 1504.3 1117.68V1222.58C1504.3 1222.58 1534.95 1254.23 1541 1260.65C1569.33 1290.74 1569.02 1345.52 1479.34 1432.94C1463.64 1448.23 1418.83 1490.54 1357.17 1490.54H1196.63Z" fill="#C23C40"/>
<path fill-rule="evenodd" clip-rule="evenodd" d="M1462.21 929.387C1451.58 940.645 1441.37 968.18 1441.37 992.446V1044.22H1493.88C1514.27 1044.22 1541.22 1025.64 1547.06 1015.8C1547.41 1015.08 1547.06 964.458 1547.06 964.458C1547.06 964.458 1560.54 983.757 1575.1 993.951C1580.57 987.038 1628.37 929.076 1668.39 928.752C1735.21 928.207 1720.12 1012.52 1692.81 1039.5C1683.97 1048.18 1644.5 1084.39 1632.3 1096C1600.73 1126.05 1546.7 1111.66 1546.7 1034.01C1546.7 1034.01 1488.71 1089.07 1480.02 1096.36C1471.28 1103.65 1441.37 1135.33 1441.37 1135.33V1271.75C1441.37 1337.17 1419.84 1359.11 1402.01 1378.79C1395.07 1386.43 1321.4 1453.64 1311.54 1460.93L1287.48 1461.47C1287.48 1461.47 1330.59 1422.28 1339.23 1413.3C1349.06 1403.1 1360.52 1382.37 1360.52 1347.87C1360.52 1339.13 1359.43 1133.51 1359.43 1133.51H1024.31C907.754 1133.51 882.839 1004.15 882.113 969.542C881.931 959.347 882.113 856.03 882.113 840C882.113 818.742 868.508 782.868 846.783 771.805H879.662C883.449 773.4 904.11 781.727 904.11 861.037C904.11 861.037 902.709 953.33 902.709 958.245C902.709 998.451 934.679 1044.58 980.878 1044.58L1360.18 1044.22C1360.53 1034.01 1370.71 995.326 1388.93 974.872C1399.3 963.342 1480.63 888.909 1489.93 881.749L1514.01 881.477C1510.34 884.823 1471 920.114 1462.21 929.387ZM1586.75 1007.08C1586.75 1007.08 1608.71 1036.22 1619.17 1044.6C1660.03 1077.37 1679.42 1042.17 1652 1004.52C1641.16 989.684 1599.13 993.964 1586.75 1007.08Z" fill="#C23C40"/>
<path fill-rule="evenodd" clip-rule="evenodd" d="M1180.05 1251.44C1180.05 1269.75 1121.55 1318.36 1118.12 1321.79C1113.89 1302.06 1099.13 1280.27 1055.53 1236.64L1119.55 1172.62C1162.44 1215.58 1180.05 1224.72 1180.05 1251.44ZM1291.07 517.61C1303.91 530.45 1331.55 565.287 1314.96 581.902C1300.32 596.557 1277.6 619.799 1277.6 619.799C1276.46 611.421 1255.19 591.253 1255.19 591.253C1255.19 591.253 1255.37 653.08 1255.19 660.732C1254.46 688.643 1243.96 696.606 1243.96 696.606C1243.96 696.606 1295.54 747.785 1295.54 813.529C1295.54 845.408 1295.67 874.733 1295.67 881.062C1295.67 894.538 1292.27 904.965 1282.88 915.302C1278.25 920.438 1230.43 968.478 1223.15 975.028C1209.3 987.505 1194.74 989.593 1183.81 989.593H1006.01C978.01 989.593 949.191 967.739 949.191 945.885C949.191 940.425 949.555 879.947 949.555 879.947C958.672 890.517 967.946 902.864 990.357 902.54C1007.85 902.268 1026.24 888.52 1031.16 883.604C1036.26 878.455 1165.66 743.181 1165.66 743.181C1165.66 743.181 1105.05 686.995 1065.13 660.304C1045.65 647.243 1019.77 663.728 1015.87 680.887C1003.63 734.698 1015.87 815.422 1015.87 815.422L966.778 766.448C947.025 746.643 947.739 701.846 971.292 678.293C975.027 674.545 1010.9 633.988 1056.48 633.988H1127.46C1175.09 633.988 1227.17 681.431 1227.17 681.431C1227.17 681.431 1234.82 673.053 1234.82 664.947C1234.82 640.538 1233.92 574.703 1233.92 574.703C1198.08 538.881 1193.2 501.904 1210.38 484.732C1242.44 452.684 1254.08 441.387 1254.08 441.387C1254.08 441.387 1253.7 480.27 1291.07 517.61ZM1068.01 874.85C1050.49 893.202 1047.44 897.793 1031.04 907.624H1231.28C1285.55 907.624 1274.76 873.929 1265.03 856.951C1245.07 822.114 1182.06 757.382 1182.06 757.382C1182.06 757.382 1071.65 870.972 1068.01 874.85Z" fill="#C23C40"/>
<path fill-rule="evenodd" clip-rule="evenodd" d="M839.674 1057.11H806.809C806.809 1057.11 842.125 1076.52 842.125 1126.55V1286.37C842.125 1390.37 927.907 1486.53 1032.13 1486.53H1119.19C1171.45 1486.53 1189.79 1473.87 1221.39 1445.83C1232.97 1435.53 1248.03 1418.63 1253.54 1412.5C1271.76 1392.11 1291.14 1375.63 1291.14 1322.07V1269.77C1291.14 1224.55 1264.97 1205.73 1252.31 1193.09C1244.2 1184.98 1221.93 1163.7 1221.93 1163.7V1270.84C1221.93 1270.84 1243.88 1294.21 1253.54 1301.81C1298.74 1337.51 1262.76 1399.48 1220.84 1399.48C1212.46 1399.48 1041.31 1399.53 1029.66 1399.83C959.255 1401.58 864.096 1338.78 864.096 1233.19V1146.36C864.109 1057.11 839.674 1057.11 839.674 1057.11Z" fill="#C23C40"/>
<path fill-rule="evenodd" clip-rule="evenodd" d="M1049.2 1251.73C1049.2 1269.97 990.695 1318.65 987.297 1322.07C983.108 1302.35 968.309 1280.56 924.679 1236.93L988.698 1172.91C1031.64 1215.84 1049.2 1224.94 1049.2 1251.73ZM379.845 1962.47C369.417 1962.47 288.953 1962.34 277.449 1962.34C245.154 1962.34 247.618 1935.53 244.791 1912.61V1765.68C244.791 1765.68 267.202 1765.13 292.597 1765.13C320.975 1765.13 356.305 1760.94 390.675 1780.4C390.675 1780.4 365.954 1720.79 292.416 1720.79H244.791V1673.71C244.791 1673.71 244.791 1632.69 234.778 1620.57C234.778 1620.57 298.109 1620.81 302.428 1620.81C360.987 1620.84 406.251 1619.95 453.319 1651.31C453.319 1651.31 444.305 1573.82 331.208 1573.82H110.281C110.281 1573.82 148.633 1606.64 147.569 1673.48L148.633 1941.22C148.633 2008.43 175.532 2010.29 175.532 2010.29H393.269C442.619 2010.29 459.79 1975 459.79 1955.88L460.53 1930.21C460.53 1930.19 444.862 1962.47 379.845 1962.47ZM959.464 1939.84V1752.57C959.464 1679.9 900.088 1660.58 855.874 1660.58C797.329 1660.58 779.806 1709.49 772.336 1726.29C759.275 1680.7 713.648 1660.05 676.217 1660.05C605.506 1660.05 587.569 1727.38 587.569 1727.38C587.569 1727.38 585.896 1662.36 529.114 1662.36L473.474 1662.49C473.474 1662.49 505.703 1675.75 505.703 1731.93L505.613 1939.87C505.613 2008.54 533.303 2009.73 533.303 2009.73H624.999C622.626 2008.54 589.799 1983.78 589.799 1939.29V1754.84C590.928 1746.64 604.78 1718.78 644.337 1718.78C666.749 1718.78 691.379 1742.14 690.821 1768.4L690.743 1939.78C690.743 2009.44 718.057 2009.64 718.057 2009.64H810.117C810.117 2009.64 774.917 1984.87 774.917 1939.2L774.645 1754.69C778.094 1744.41 790.208 1719.35 824.954 1719.35C852.632 1719.35 875.809 1742.71 875.264 1768.99C875.264 1768.99 875.082 1925.43 875.173 1939.95C875.588 2010.07 902.5 2009.43 902.5 2009.43C950.437 2009.43 994.56 2009.63 994.56 2009.63C994.56 2009.63 959.464 1985.37 959.464 1939.84ZM1120.33 1939.76C1120.33 1985.92 1155.66 2009.65 1155.66 2009.65C1155.66 2009.65 1111.87 2009.46 1063.96 2009.46C1063.96 2009.46 1035.83 2009.87 1035.83 1940.29V1939.98L1035.92 1731.45C1035.92 1676.46 1004.05 1662.33 1004.05 1662.33H1059.69C1079.32 1662.33 1120.16 1662.33 1120.16 1740.1L1120.02 1939.43L1120.33 1939.76ZM1402.86 1688.53C1402.86 1688.53 1394.02 1663.54 1355.92 1663.54C1298.32 1663.54 1284.29 1731.98 1284.29 1731.98C1279.61 1677.89 1265.11 1661.89 1224.46 1661.89L1168.82 1662.04C1168.82 1662.04 1201.06 1675.25 1201.06 1731.44L1200.96 1939.65C1200.96 2008.37 1228.64 2009.5 1228.64 2009.5H1320.33C1317.97 2008.37 1285.15 1983.6 1285.15 1939.1L1285.25 1768.62C1287.66 1753.16 1295.64 1741.27 1307.74 1733.43C1337.96 1713.86 1379.23 1718.51 1402.86 1747.36V1688.53ZM1830.79 1701.11C1861.85 1701.11 1885.02 1714.68 1885.02 1714.68L1885.3 1662.28H1808.17L1808.22 1582.83C1808.22 1582.83 1787.96 1617.89 1746.48 1651.95C1720.44 1673.33 1665.75 1699.75 1665.75 1699.75L1723.98 1700.8L1723.88 1942.44C1723.88 2009.46 1751.89 2009.46 1751.89 2009.46C1802.2 2009.46 1843.48 2009.65 1843.48 2009.65C1843.48 2009.65 1808.08 1985.92 1808.08 1941.85L1808.15 1700.98C1832.33 1701.06 1815.69 1701.11 1830.79 1701.11ZM2109.64 1806.03C2058.18 1859.84 2017.81 1851.41 1985.46 1890.84C1985.46 1890.89 1990.65 1944.3 2031.52 1963.14C2045.47 1969.61 2102.11 1990.05 2138.82 1926.72L2138.56 1982.77C2138.56 1982.77 2115 2010.12 2040.25 2010.12C1950.15 2010.12 1888.44 1939.28 1888.44 1843.2C1888.44 1748.73 1938.75 1661.02 2033.74 1660.53C2126.83 1660.05 2177.25 1735.28 2109.64 1806.03ZM2053.32 1783.98C2068.55 1755.85 2080.53 1684.4 2028.5 1688.31C1968.21 1692.84 1979.68 1853.15 1979.68 1853.15C1999.85 1831.24 2030.09 1826.78 2053.32 1783.98ZM1077.71 1634.23C1101.34 1634.23 1120.51 1615.48 1120.51 1592.35C1120.51 1569.22 1101.34 1550.46 1077.71 1550.46C1054.08 1550.46 1034.91 1569.22 1034.91 1592.35C1034.91 1615.48 1054.08 1634.23 1077.71 1634.23ZM1498.41 1970.25C1477.49 1970.25 1462.53 1948.49 1462.53 1926.18C1462.53 1839.49 1533.52 1827.52 1552.49 1804.38L1552.65 1950.55C1544.26 1957.99 1535.75 1970.25 1498.41 1970.25ZM1552.49 1770.92C1531.16 1808.3 1365.2 1816.22 1390.64 1944.58C1400.7 1995.49 1434.62 2010.33 1477.28 2010.33C1518.72 2010.33 1543.62 1988.69 1554.06 1968.56C1560.25 2007.21 1579.77 2009.44 1579.77 2009.44C1627.72 2009.44 1671.49 2009.64 1671.49 2009.64C1671.49 2009.64 1635.77 1985.9 1635.77 1940.11V1744.97C1635.77 1698.29 1584.02 1661.96 1529.01 1661.96C1476.14 1661.96 1442.9 1687.42 1442.9 1687.42V1747.97C1442.9 1747.97 1461.77 1700 1509.6 1700C1556.29 1700 1559.73 1723.25 1559.46 1734.86C1559.46 1734.86 1564.18 1750.57 1552.49 1770.92ZM2312.66 1915.34C2313.17 1939.89 2291.21 1972.13 2244.5 1972.13C2196.66 1972.13 2177.57 1923.18 2177.57 1923.18V1985.2C2177.57 1985.2 2212.07 2009.79 2264.94 2009.79C2327.68 2009.79 2391.12 1962.1 2389.69 1895.73C2389.24 1872.37 2380.9 1852.47 2368.16 1835.31C2346.93 1806.86 2308.28 1786.96 2278.36 1768.56C2261.29 1758.04 2252.21 1739.25 2252.02 1732.63C2251.51 1721.01 2257.14 1697.53 2303.87 1697.53C2349.45 1697.53 2368.85 1745.51 2368.85 1745.51L2368.67 1687.42C2368.67 1687.42 2333.79 1659.73 2280.91 1659.73C2225.9 1659.73 2175.96 1696.07 2176.9 1742.72C2177.75 1783.71 2195.03 1810.26 2228.54 1835.26C2241.78 1845.13 2257.59 1854.74 2275.88 1864.9C2302.59 1879.69 2312.31 1897.81 2312.66 1915.34Z" fill="#C23C40"/>
</svg>
