<svg width="332" height="153" viewBox="0 0 332 153" fill="none" xmlns="http://www.w3.org/2000/svg">
<path d="M290.8 56.3998H269.5C266.8 56.3998 264.6 54.1998 264.6 51.4998V30.1998C264.6 27.4998 266.8 25.2998 269.5 25.2998H290.8C293.5 25.2998 295.7 27.4998 295.7 30.1998V51.4998C295.8 54.1998 293.6 56.3998 290.8 56.3998Z" fill="#2889E0"/>
<path d="M265 37.3C267 28.8 261.5 24.3 254.7 25.5L264.7 15.5C263.6 22.3 268 27.8 276.5 25.8L265 37.3Z" fill="#2889E0"/>
<path d="M261.1 25.5996H244.4C242.3 25.5996 240.5 23.8996 240.5 21.6996V4.99961C240.5 2.89961 242.2 1.09961 244.4 1.09961H261.1C263.2 1.09961 265 2.79961 265 4.99961V21.6996C265 23.8996 263.2 25.5996 261.1 25.5996Z" fill="#2889E0"/>
<path d="M251.8 25.6002C242.2 24.8002 239.2 30.0002 239.8 36.6002L231.2 28.9002C236.4 28.8002 239.9 26.6002 240.6 21.1002C240.8 19.6002 241.2 17.8002 240.8 15.7002L251.8 25.6002Z" fill="#2889E0"/>
<path d="M236.5 45.5998H226.1C224.3 45.5998 222.9 44.0998 222.9 42.3998V31.9998C222.9 30.1998 224.4 28.7998 226.1 28.7998H236.5C238.3 28.7998 239.7 30.2998 239.7 31.9998V42.3998C239.8 44.1998 238.3 45.5998 236.5 45.5998Z" fill="#2889E0"/>
<path d="M20.4999 143.6C20.4999 144.3 20.1999 144.9 19.6999 145.4C19.0999 145.9 18.3999 146.2 17.3999 146.2C16.4999 146.2 15.7999 146 15.2999 145.6C15.0999 145.4 14.6999 144.9 14.1999 144.1L5.3999 130.7V145.9H1.8999V129.7C1.8999 127.9 2.8999 126.9 4.9999 126.9C5.8999 126.9 6.5999 127.1 7.0999 127.5C7.3999 127.7 7.7999 128.2 8.2999 129L16.9999 142.3V127H20.5999V143.6H20.4999Z" fill="#2889E0"/>
<path d="M52.3998 137.8H40.0998V141C40.0998 142.4 41.1998 143.1 43.3998 143.1H53.0998V145.9H42.2998C40.3998 145.9 38.9998 145.6 37.9998 144.9C36.8998 144.2 36.2998 143.2 36.2998 141.9V131.2C36.2998 129.9 36.7998 128.9 37.7998 128.1C38.7998 127.3 40.1998 127 41.9998 127H53.0998V129.8H43.2998C41.0998 129.8 39.9998 130.5 39.9998 131.9V135.1H52.2998V137.8H52.3998Z" fill="#2889E0"/>
<path d="M84.4998 129.6H77.9998V145.8H74.1998V129.6H67.7998V126.8H84.3998V129.6H84.4998Z" fill="#2889E0"/>
<path d="M126.3 126.9L121.1 144.2C120.7 145.5 119.7 146.2 118.1 146.2C116.5 146.2 115.5 145.5 115.2 144.2L111.5 130.8L107.9 144.2C107.5 145.5 106.5 146.2 104.9 146.2C103.3 146.2 102.4 145.5 101.9 144.2L96.7 126.9H100.4L105 141.9L108.6 128.8C109 127.4 109.9 126.7 111.5 126.7C113.1 126.7 114 127.4 114.4 128.8L118 142L122.6 127L126.3 126.9Z" fill="#2889E0"/>
<path d="M158.5 141.6C158.5 144.5 156.4 145.9 152.3 145.9H146.6C144.6 145.9 143.1 145.6 142.1 145C140.9 144.2 140.3 143.1 140.3 141.7V131.4C140.3 130 140.9 128.8 142.1 128C143.1 127.3 144.5 127 146.5 127H152.2C156.3 127 158.4 128.4 158.4 131.3V141.6H158.5ZM154.8 140.9V132.1C154.8 131.2 154.5 130.6 154 130.3C153.5 130 152.6 129.8 151.4 129.8H147.4C146.2 129.8 145.3 130 144.8 130.3C144.3 130.6 144 131.3 144 132.1V140.9C144 141.7 144.3 142.3 144.9 142.7C145.4 143 146.2 143.2 147.4 143.2H151.4C152.6 143.2 153.4 143 153.9 142.7C154.4 142.4 154.8 141.7 154.8 140.9Z" fill="#2889E0"/>
<path d="M192.8 145.9H188.1L178.9 138.6C178.6 138.4 178.4 138 178.4 137.4C178.4 136.3 179.2 135.8 180.7 135.8H186.2C188 135.8 188.9 135.2 188.9 133.9V131.7C188.9 130.4 187.9 129.7 185.8 129.7H178V145.9H174.2V127H187C190.9 127 192.8 128.3 192.8 131V134.3C192.8 135.5 192.3 136.4 191.3 137.1C190.3 137.8 189 138.2 187.4 138.2H183L192.8 145.9Z" fill="#2889E0"/>
<path d="M211.8 145.9H208V127H211.8V145.9ZM226.1 145.9H221.6L213 137.9C212.2 137.2 211.8 136.7 211.8 136.3C211.8 136 212.2 135.5 212.9 134.7L221.2 126.9H225.7L215.8 136.2L226.1 145.9Z" fill="#2889E0"/>
<path d="M255.7 129.7H246C244.4 129.7 243.4 130 243 130.6C242.8 131 242.7 131.8 242.7 133C242.7 133.7 243 134.2 243.6 134.5C244.1 134.8 244.9 134.9 246 134.9H250C251.7 134.9 253.1 135.2 254.1 135.9C255.1 136.6 255.6 137.5 255.6 138.8V141.8C255.6 143.1 255.1 144.1 254 144.8C253 145.5 251.5 145.8 249.7 145.8H239V143H248.7C250.3 143 251.3 142.7 251.7 142.1C251.9 141.8 252 140.9 252 139.5C252 138.2 251 137.6 248.9 137.6H244.9C243.2 137.6 241.9 137.3 240.8 136.7C239.6 136 239.1 135.1 239.1 133.9V130.9C239.1 129.6 239.7 128.5 241 127.7C241.9 127.1 243.2 126.9 244.8 126.9H255.8L255.7 129.7Z" fill="#2889E0"/>
<path fill-rule="evenodd" clip-rule="evenodd" d="M325.9 91.7004C325.9 75.3004 312.5 61.9004 296.1 61.9004H295.5C279.1 61.9004 265.7 75.3004 265.7 91.7004C265.7 104.6 274 115.6 285.5 119.7L294.9 110.3C284.9 110 276.8 101.7 276.8 91.7004C276.8 81.5004 285.2 73.0004 295.5 73.0004H296.1C306.3 73.0004 314.8 81.4004 314.8 91.7004C314.8 95.6004 313.6 99.2004 311.5 102.2C310.6 103.6 294.1 121.4 294.1 121.4C294.2 121.4 294 121.4 294.2 121.4L272.7 144H288L315.9 113.8C322 108.3 325.9 100.4 325.9 91.7004Z" fill="white"/>
<path d="M21.4 106.8C17.7 106.8 14.6 106.5 12.2 105.9C9.70005 105.3 7.80005 104.3 6.30005 102.9C4.80005 101.5 3.80005 99.8004 3.20005 97.6004C2.60005 95.4004 2.30005 92.7004 2.30005 89.5004V73.7004C2.30005 70.6004 2.60005 67.9004 3.20005 65.7004C3.80005 63.5004 4.90005 61.7004 6.30005 60.3004C7.80005 58.9004 9.70005 58.0004 12.2 57.3004C14.7 56.7004 17.7 56.4004 21.4 56.4004H56.3V66.1004H21.9C20.2 66.1004 18.8 66.2004 17.7 66.5004C16.6 66.8004 15.7 67.2004 15.1 67.9004C14.5 68.5004 14 69.4004 13.8 70.4004C13.6 71.5004 13.4 72.8004 13.4 74.3004V89.1004C13.4 90.7004 13.5 92.0004 13.8 93.0004C14 94.0004 14.5 94.9004 15.1 95.5004C15.7 96.1004 16.6 96.6004 17.8 96.8004C18.9 97.0004 20.4 97.2004 22.1 97.2004H56.4001V106.8H21.4Z" fill="white"/>
<path d="M63.6001 106.8V53.7998H74.8001V106.7H63.6001V106.8Z" fill="white"/>
<path d="M102.3 106.8C98.6 106.8 95.5 106.5 93.1 105.9C90.6 105.3 88.7 104.3 87.2 102.9C85.7 101.5 84.7 99.8002 84.1 97.6002C83.5 95.4002 83.2 92.7002 83.2 89.5002V84.1002C83.2 80.9002 83.5 78.2002 84.1 76.0002C84.7 73.8002 85.8 72.0002 87.2 70.6002C88.7 69.2002 90.6 68.3002 93.1 67.6002C95.6 67.0002 98.6 66.7002 102.3 66.7002H115.7C119.4 66.7002 122.5 67.0002 125 67.6002C127.5 68.2002 129.4 69.2002 130.9 70.6002C132.4 72.0002 133.4 73.8002 134 76.0002C134.6 78.2002 134.9 80.9002 134.9 84.1002V89.4002C134.9 92.6002 134.6 95.3002 134 97.5002C133.4 99.7002 132.3 101.5 130.9 102.8C129.5 104.1 127.5 105.1 125 105.8C122.5 106.4 119.4 106.7 115.7 106.7L102.3 106.8ZM124 84.5002C124 82.8002 123.9 81.4002 123.6 80.4002C123.3 79.3002 122.8 78.5002 122.1 77.9002C121.4 77.3002 120.4 76.9002 119.1 76.6002C117.8 76.4002 116.2 76.3002 114.2 76.3002H103.8C101.8 76.3002 100.2 76.4002 99 76.6002C97.7 76.8002 96.8 77.2002 96 77.9002C95.3 78.5002 94.8 79.4002 94.5 80.4002C94.2 81.5002 94.1 82.9002 94.1 84.5002V89.2002C94.1 90.9002 94.2 92.2002 94.5 93.3002C94.8 94.4002 95.3 95.2002 96 95.8002C96.7 96.4002 97.7 96.8002 99 97.1002C100.3 97.3002 101.9 97.5002 103.8 97.5002H114.2C116.2 97.5002 117.8 97.4002 119.1 97.1002C120.4 96.9002 121.4 96.4002 122.1 95.8002C122.8 95.2002 123.3 94.3002 123.6 93.3002C123.9 92.2002 124 90.9002 124 89.2002V84.5002Z" fill="white"/>
<path d="M162.3 106.8C158.6 106.8 155.5 106.5 153.1 105.9C150.6 105.3 148.7 104.3 147.2 102.9C145.7 101.5 144.7 99.7998 144.1 97.5998C143.5 95.3998 143.2 92.6998 143.2 89.4998V66.7998H154.3V89.1998C154.3 90.8998 154.5 92.2998 154.8 93.3998C155.1 94.4998 155.6 95.2998 156.3 95.8998C157 96.4998 157.9 96.8998 159.1 97.0998C160.3 97.2998 161.7 97.3998 163.3 97.3998H174.8C176.6 97.3998 178.1 97.2998 179.2 97.0998C180.4 96.8998 181.3 96.4998 182 95.8998C182.7 95.2998 183.1 94.4998 183.4 93.3998C183.7 92.2998 183.8 90.9998 183.8 89.1998V66.7998H194.7V89.4998C194.7 92.6998 194.4 95.3998 193.8 97.5998C193.2 99.7998 192.1 101.6 190.7 102.9C189.2 104.3 187.2 105.2 184.8 105.9C182.3 106.5 179.2 106.8 175.5 106.8H162.3Z" fill="white"/>
<path d="M222 106.8C218.3 106.8 215.1 106.5 212.7 105.9C210.2 105.3 208.2 104.3 206.8 102.9C205.4 101.5 204.3 99.7998 203.7 97.5998C203.1 95.3998 202.8 92.6998 202.8 89.4998V84.0998C202.8 80.8998 203.1 78.1998 203.7 75.9998C204.3 73.7998 205.4 71.9998 206.8 70.5998C208.3 69.1998 210.3 68.2998 212.7 67.5998C215.2 66.9998 218.3 66.6998 222 66.6998H244.2V53.7998H255.2V89.4998C255.2 92.6998 254.9 95.3998 254.3 97.5998C253.7 99.7998 252.6 101.6 251.2 102.9C249.7 104.3 247.8 105.2 245.3 105.9C242.8 106.5 239.7 106.8 236 106.8H222ZM213.7 89.1998C213.7 90.9998 213.8 92.3998 214.1 93.4998C214.4 94.5998 214.9 95.3998 215.6 95.9998C216.3 96.5998 217.3 96.9998 218.6 97.1998C219.9 97.3998 221.5 97.4998 223.4 97.4998H235.7C237.4 97.4998 238.8 97.3998 239.9 97.1998C241 96.9998 241.9 96.5998 242.5 95.8998C243.1 95.2998 243.6 94.3998 243.8 93.3998C244 92.2998 244.2 90.9998 244.2 89.2998V76.1998H223.3C221.4 76.1998 219.8 76.2998 218.5 76.4998C217.2 76.6998 216.3 77.0998 215.5 77.6998C214.7 78.2998 214.3 79.0998 214 80.1998C213.7 81.2998 213.6 82.6998 213.6 84.4998L213.7 89.1998Z" fill="white"/>
</svg>
