<svg width="255" height="220" viewBox="0 0 255 220" fill="none" xmlns="http://www.w3.org/2000/svg">
<path d="M235.483 137.298H236.735C237.556 137.298 238.299 137.196 238.299 136.319C238.299 135.543 237.478 135.408 236.774 135.408H235.522V137.298H235.483ZM234.075 134.497H236.891C238.729 134.497 239.668 135.037 239.668 136.42C239.668 137.534 238.925 138.074 237.674 138.175L239.707 141.043H238.26L236.305 138.242H235.444V141.043H234.036V134.497H234.075ZM241.741 137.804C241.741 135.104 239.473 133.147 236.657 133.147C233.88 133.147 231.611 135.104 231.611 137.804C231.611 140.503 233.88 142.46 236.657 142.46C239.473 142.46 241.741 140.503 241.741 137.804ZM229.969 137.804C229.969 134.632 232.98 132.034 236.657 132.034C240.333 132.034 243.345 134.632 243.345 137.804C243.345 140.975 240.333 143.574 236.657 143.574C232.98 143.574 229.969 140.975 229.969 137.804Z" fill="black"/>
<path d="M122.727 63.5368C77.8673 66.0675 35.5107 78.6534 17.4025 96.6718C-0.705593 114.69 10.5191 133.046 42.003 143.776C21.0398 133.113 12.9831 115.905 30.5045 98.4939C48.026 81.0828 86.5107 68.0583 122.727 63.5368Z" fill="#D94036"/>
<path d="M49.2777 72.5123L42.5898 91.2055H63.9832L45.2102 144.08H72.6658L91.3997 91.2055H112.91L119.559 72.5123H49.2777Z" fill="black"/>
<path d="M124.293 72.5123L98.9883 144.08H126.444L151.748 72.5123H124.293Z" fill="black"/>
<path d="M169.661 113.644L179.869 100.923L185.423 113.644H169.661ZM226.137 144.08L194.926 72.4448H194.262H175.997H175.919L117.918 144.08H145.334L156.012 130.65H192.814L198.681 144.08H226.137Z" fill="black"/>
<path d="M206.306 72.546C227.269 83.2086 235.717 100.417 218.196 117.828C200.674 135.239 161.759 148.264 125.582 152.785C170.442 150.255 212.798 137.669 230.906 119.65C249.015 101.632 237.829 83.2761 206.306 72.546Z" fill="#D94036"/>
</svg>
